Coordinates
version=1
nRows=21
nColumns=28
inDegrees=yes

Units are S.I. units (second, meters, Newtons, ...)
Angles are in degrees.

endheader
time	pelvis_tilt	pelvis_list	pelvis_rotation	pelvis_tx	pelvis_ty	pelvis_tz	hip_flexion_r	hip_adduction_r	hip_rotation_r	knee_angle_r	ankle_angle_r	subtalar_angle_r	mtp_angle_r	hip_flexion_l	hip_adduction_l	hip_rotation_l	knee_angle_l	socket_flexion	socket_adduction	socket_rotation	socket_tx	socket_ty	socket_tz	foot_flex	lumbar_extension	lumbar_bending	lumbar_rotation
      0.62083333	      0.84968974	     -2.91753330	      3.59279615	     -0.00627298	      0.98538903	      0.29280045	     27.09933339	      2.37355559	    -13.73114954	    -12.82442757	      1.83903680	    -11.81042494	     21.94527423	    -17.30231649	     -2.21692535	     16.19520771	    -21.09085369	     -8.86871221	      0.00000000	      0.00000000	      0.00000000	     -0.00495941	      0.00000000	      7.54546379	    -14.04590905	      3.74855674	      0.40386576
      0.62500000	      0.72689570	     -2.78685635	      3.41587757	     -0.00618556	      0.98509920	      0.29311743	     27.41597104	      2.25646542	    -13.76187998	    -13.22869560	      1.97309951	    -11.62673356	     21.62413219	    -17.34301701	     -2.06394600	     16.11273830	    -20.64892957	     -8.59129664	      0.00000000	      0.00000000	      0.00000000	     -0.00510213	      0.00000000	      7.66419172	    -13.89935418	      3.54808192	      0.35585403
      0.62916667	      0.75004216	     -2.90087497	      3.47695762	      0.00005538	      0.98446229	      0.29310640	     27.41430920	      2.38588639	    -13.52871479	    -13.74012981	      1.68537516	    -11.61514537	     21.66442636	    -17.55978873	     -2.16403106	     16.21929945	    -20.96436560	     -8.57264443	      0.00000000	      0.00000000	      0.00000000	     -0.00483199	      0.00000000	      7.49289609	    -13.84456284	      3.84689537	      0.38579243
      0.63333333	      0.84173521	     -3.03944152	      3.41264116	      0.00637390	      0.98386127	      0.29334131	     27.46305030	      2.55162420	    -13.50784548	    -14.49120360	      1.01407009	    -11.76272552	     21.72526427	    -17.80492984	     -2.25278304	     15.96169670	    -21.47327287	     -8.67652732	      0.00000000	      0.00000000	      0.00000000	     -0.00439965	      0.00000000	      7.35014296	    -13.87227570	      4.12393732	      0.40946601
      0.63750000	      0.89076271	     -3.15626689	      3.32713972	      0.01221056	      0.98338541	      0.29368625	     27.41238671	      2.82195560	    -12.85979665	    -14.82246419	     -0.60824533	    -13.74901337	     23.52286474	    -17.76977984	     -2.26011094	     15.75806470	    -22.55090161	     -9.10234007	      0.00000000	      0.00000000	      0.00000000	     -0.00353954	      0.00000000	      7.23651374	    -13.91379131	      4.34253238	      0.57406689
      0.64166667	      0.94537688	     -3.27028685	      3.22840544	      0.01852741	      0.98283923	      0.29397844	     27.51162614	      2.95873425	    -12.81738811	    -15.62666233	     -1.11360507	    -13.75043048	     23.55172318	    -18.00589167	     -2.31496666	     15.58207910	    -22.90079461	     -9.06174468	      0.00000000	      0.00000000	      0.00000000	     -0.00316569	      0.00000000	      7.05845873	    -13.91030637	      4.58634259	      0.59873861
      0.64583333	      1.01849185	     -3.40908219	      3.10787293	      0.02477913	      0.98237578	      0.29429600	     27.58195871	      3.13145297	    -12.72682902	    -16.40731611	     -1.69503173	    -13.83065332	     23.63135429	    -18.20053892	     -2.37617855	     15.36283782	    -23.39813185	     -9.07236916	      0.00000000	      0.00000000	      0.00000000	     -0.00277689	      0.00000000	      6.87488638	    -13.92202624	      4.84402379	      0.69655764
      0.65000000	      1.07878255	     -3.57339178	      2.97318632	      0.03086880	      0.98198587	      0.29466649	     27.60171207	      3.38324945	    -12.41695408	    -17.01905880	     -2.48981391	    -14.31925740	     24.03733256	    -18.26759416	     -2.43658567	     15.11104948	    -24.17965734	     -9.23679900	      0.00000000	      0.00000000	      0.00000000	     -0.00215764	      0.00000000	      6.67529743	    -13.95385185	      5.10349039	      1.00678206
      0.65416667	      1.13174680	     -3.70601827	      2.84329289	      0.03718518	      0.98158799	      0.29506467	     27.69038404	      3.54575703	    -12.33511488	    -17.83669773	     -2.97417940	    -14.51498293	     24.13929867	    -18.43789669	     -2.49644290	     14.87367930	    -24.61899770	     -9.16292328	      0.00000000	      0.00000000	      0.00000000	     -0.00179395	      0.00000000	      6.43418466	    -13.93510294	      5.34748211	      1.01914655
      0.65833333	      1.12413486	     -3.88063362	      2.62549015	      0.04335965	      0.98118384	      0.29563090	     27.75743809	      3.86073642	    -11.86832930	    -18.41141035	     -3.92644826	    -15.62356622	     24.95528682	    -18.44097027	     -2.54974640	     14.53795788	    -25.34371149	     -9.24137979	      0.00000000	      0.00000000	      0.00000000	     -0.00127050	      0.00000000	      6.15696462	    -13.87181872	      5.60049524	      1.33608038
      0.66250000	      1.18281081	     -4.03623265	      2.50547961	      0.04968159	      0.98091463	      0.29596242	     27.81780605	      4.02319126	    -11.84786410	    -19.21497776	     -4.27240595	    -15.62845062	     24.96195907	    -18.60593862	     -2.63242875	     14.30631383	    -25.73101382	     -9.07541609	      0.00000000	      0.00000000	      0.00000000	     -0.00101467	      0.00000000	      5.84059102	    -13.86601013	      5.88455314	      1.33433506
      0.66666667	      1.23136127	     -4.18977916	      2.44288648	      0.05587569	      0.98070941	      0.29622909	     27.84696110	      4.18445076	    -11.71999678	    -19.93326377	     -4.53861250	    -15.61682644	     24.96967277	    -18.72571545	     -2.72516987	     14.21579223	    -26.11846562	     -8.85085771	      0.00000000	      0.00000000	      0.00000000	     -0.00083150	      0.00000000	      5.55308245	    -13.87090261	      6.17790194	      1.37160965
      0.67083333	      1.31628599	     -4.51734908	      2.15064136	      0.06231775	      0.98049554	      0.29684594	     27.83012645	      4.60762849	    -11.61281822	    -20.61576275	     -5.07686243	    -15.82627189	     25.16362220	    -18.83062256	     -2.93097362	     13.54197565	    -26.83009475	     -8.87584169	      0.00000000	      0.00000000	      0.00000000	     -0.00045292	      0.00000000	      5.19860499	    -13.87202569	      6.55747665	      1.79391234
      0.67500000	      1.37081005	     -4.67583317	      2.02254957	      0.06859703	      0.98037097	      0.29715060	     27.85360726	      4.77220276	    -11.56686019	    -21.36408845	     -5.31775408	    -15.89358533	     25.19425955	    -18.94579677	     -3.00975870	     13.28176340	    -27.20738776	     -8.58706358	      0.00000000	      0.00000000	      0.00000000	     -0.00031330	      0.00000000	      4.83398472	    -13.87091478	      6.85819867	      1.82751145
      0.67916667	      1.42415273	     -4.87532401	      1.88808616	      0.07484360	      0.98023284	      0.29749145	     27.87122361	      4.98216821	    -11.49859242	    -22.10312086	     -5.53269652	    -15.92600324	     25.22781482	    -19.05362064	     -3.13465934	     12.99574730	    -27.58353866	     -8.29006297	      0.00000000	      0.00000000	      0.00000000	     -0.00032967	      0.00000000	      4.44188110	    -13.86649641	      7.17228587	      1.89652345
      0.68333333	      1.46699261	     -5.11418046	      1.70211212	      0.08120575	      0.98014185	      0.29793034	     27.86233476	      5.25549611	    -11.45467952	    -22.78324671	     -5.71280949	    -15.96198607	     25.29254437	    -19.15304828	     -3.29916176	     12.53150078	    -27.94155504	     -7.94227506	      0.00000000	      0.00000000	      0.00000000	     -0.00037588	      0.00000000	      4.06286718	    -13.83419209	      7.51348077	      2.04737897
      0.68750000	      1.53747114	     -5.35523787	      1.49621802	      0.08759100	      0.98015967	      0.29837107	     27.80583293	      5.54356692	    -11.36346889	    -23.44592263	     -5.84652917	    -15.96539441	     25.37024487	    -19.24650786	     -3.44702050	     12.10546956	    -28.38300598	     -7.64206659	      0.00000000	      0.00000000	      0.00000000	     -0.00029194	      0.00000000	      3.65172194	    -13.83942128	      7.85645568	      2.22259664
      0.69166667	      1.71893425	     -5.67316542	      1.20042301	      0.09395113	      0.98043668	      0.29905143	     27.52963828	      6.02290751	    -11.01580458	    -23.89591476	     -5.94992136	    -15.92993171	     25.63969877	    -19.28631888	     -3.62807454	     11.51382216	    -29.33908626	     -7.64657113	      0.00000000	      0.00000000	      0.00000000	      0.00042899	      0.00000000	      3.31872026	    -13.99720522	      8.19891353	      2.83563531
      0.69583333	      1.90816198	     -5.85188474	      0.91645869	      0.10047617	      0.98083200	      0.29950173	     27.29286215	      6.26443178	    -10.93426075	    -24.51792580	     -5.98964871	    -15.90893120	     25.82331124	    -19.24532257	     -3.63873036	     10.94927242	    -30.49559549	     -7.75422374	      0.00000000	      0.00000000	      0.00000000	      0.00164341	      0.00000000	      2.93904969	    -14.12556571	      8.49875971	      3.03832450
      0.70000000	      2.13276989	     -5.99893023	      0.73283059	      0.10671053	      0.98138397	      0.29997894	     26.97430693	      6.48692948	    -10.76124826	    -25.03135340	     -5.97584718	    -15.76201065	     26.09660105	    -18.94951723	     -3.63244988	     10.45674491	    -32.31010872	     -8.21654278	      0.00000000	      0.00000000	      0.00000000	      0.00358336	      0.00000000	      2.56065657	    -14.33950420	      8.67834293	      3.35843523
      0.70416667	      2.30658552	     -6.08571547	      0.54856157	      0.11298674	      0.98192317	      0.30043276	     26.71394303	      6.61877704	    -10.67226003	    -25.57353741	     -5.91080860	    -15.58975369	     26.39264194	    -18.47274607	     -3.55394079	      9.99790367	    -34.41444751	     -8.82948326	      0.00000000	      0.00000000	      0.00000000	      0.00607649	      0.00000000	      2.20432465	    -14.46908496	      8.80792237	      3.54993093
